# xmcd CD database file
#
# Track frame offsets:
#	150
#	18300
#	38175
#	63375
#	86725
#	108525
#	128662
#	150412
#	181350
#	202275
#	225900
#	252155
#	274837
#
# Disc length: 4016 seconds
#
# Revision: 0
# Processed by: cddbd v1.5.1PL0 Copyright (c) Steve Scherf et al.
# Submitted via: CDex 1.51
#
DISCID=ab0fae0d
DTITLE=Jeanne Carroll - My Style Is Different
DYEAR=1993
DGENRE=Blues
TTITLE0=Boogie Bound
TTITLE1=I Had A Good Friend
TTITLE2=Help Me
TTITLE3=You Don't Have To Go
TTITLE4=Blues Breakdown
TTITLE5=I Wonder Why
TTITLE6=Brother Willie D-I-X-O-N
TTITLE7=Penny Pinchin' Blues
TTITLE8=Sweet Home Chicago
TTITLE9=Help Me
TTITLE10=Never Make Your Move Too Soon
TTITLE11=Boogie Bound
TTITLE12=Everyday I Have The Blues
EXTD=YEAR: 1993
EXTT0=
EXTT1=
EXTT2=
EXTT3=
EXTT4=
EXTT5=
EXTT6=
EXTT7=
EXTT8=
EXTT9=
EXTT10=
EXTT11=
EXTT12=
PLAYORDER=
